<?xml version="1.0" encoding="utf-8"?>
<!-- Generator: Adobe Illustrator 16.0.0, SVG Export Plug-In . SVG Version: 6.00 Build 0)  -->
<!DOCTYPE svg PUBLIC "-//W3C//DTD SVG 1.1//EN" "http://www.w3.org/Graphics/SVG/1.1/DTD/svg11.dtd">
<svg version="1.1" id="Layer_1" xmlns="http://www.w3.org/2000/svg" xmlns:xlink="http://www.w3.org/1999/xlink" x="0px" y="0px"
	 width="47px" height="47px" viewBox="0 0 47 47" enable-background="new 0 0 47 47" xml:space="preserve">
<g>
	<path fill="#74C594" d="M23.501-0.038c-13,0-23.539,10.538-23.539,23.538s10.539,23.538,23.539,23.538
		c12.998,0,23.537-10.537,23.537-23.538C47.038,10.5,36.499-0.038,23.501-0.038z M39.474,34.132c-0.004,0-0.012,0.002-0.02,0H7.546
		c-0.285,0-0.547-0.149-0.689-0.396s-0.143-0.549,0-0.795L22.812,5.307c0.283-0.491,1.093-0.491,1.376,0l15.877,27.499
		c0.127,0.142,0.205,0.328,0.205,0.531C40.271,33.776,39.913,34.132,39.474,34.132z"/>
	<path fill="#FFFFFF" d="M23.501,7.294L8.923,32.542h29.154L23.501,7.294z M19.04,19.311c0.346-0.271,0.848-0.21,1.115,0.138
		l2.551,3.261v-7.621c0-0.438,0.355-0.795,0.795-0.795s0.795,0.356,0.795,0.795v7.621l2.551-3.261
		c0.27-0.348,0.77-0.409,1.117-0.138c0.346,0.271,0.406,0.771,0.135,1.116l-3.973,5.078c-0.15,0.193-0.381,0.305-0.625,0.305
		c-0.246,0-0.477-0.11-0.627-0.305l-3.971-5.078C18.634,20.081,18.694,19.581,19.04,19.311z M28.099,24.647l-3.973,5.078
		c-0.15,0.193-0.381,0.305-0.625,0.305c-0.246,0-0.477-0.111-0.627-0.305l-3.971-5.078c-0.27-0.346-0.209-0.846,0.137-1.116
		c0.346-0.271,0.848-0.209,1.115,0.138l3.346,4.276l3.346-4.276c0.27-0.348,0.77-0.41,1.117-0.138
		C28.31,23.802,28.37,24.302,28.099,24.647z"/>
	<g>
		<path fill="#333333" d="M40.065,32.806L24.188,5.307c-0.283-0.491-1.094-0.491-1.376,0L6.857,32.94
			c-0.143,0.246-0.143,0.549,0,0.795s0.404,0.396,0.689,0.396h31.908c0.008,0.002,0.016,0,0.02,0c0.439,0,0.797-0.355,0.797-0.795
			C40.271,33.134,40.192,32.946,40.065,32.806z M38.077,32.542H8.923L23.501,7.294L38.077,32.542z"/>
		<path fill="#333333" d="M26.847,23.669l-3.346,4.277l-3.346-4.277c-0.268-0.346-0.77-0.409-1.115-0.137
			c-0.346,0.27-0.406,0.77-0.137,1.116l3.971,5.077c0.15,0.193,0.381,0.306,0.627,0.306c0.244,0,0.475-0.11,0.625-0.306l3.973-5.077
			c0.271-0.347,0.211-0.847-0.135-1.116C27.616,23.26,27.116,23.322,26.847,23.669z"/>
		<path fill="#333333" d="M22.706,15.087v7.621l-2.551-3.261c-0.268-0.348-0.77-0.408-1.115-0.138
			c-0.346,0.271-0.406,0.771-0.137,1.116l3.971,5.079c0.15,0.192,0.381,0.305,0.627,0.305c0.244,0,0.475-0.111,0.625-0.305
			l3.973-5.079c0.271-0.346,0.211-0.846-0.135-1.116c-0.348-0.271-0.848-0.21-1.117,0.138l-2.551,3.261v-7.621
			c0-0.438-0.355-0.795-0.795-0.795S22.706,14.649,22.706,15.087z"/>
	</g>
</g>
</svg>
